<?xml version="1.0" encoding="UTF-8" standalone="no"?>
<!-- Created with Inkscape (http://www.inkscape.org/) -->

<svg
   xmlns:dc="http://purl.org/dc/elements/1.1/"
   xmlns:cc="http://creativecommons.org/ns#"
   xmlns:rdf="http://www.w3.org/1999/02/22-rdf-syntax-ns#"
   xmlns:svg="http://www.w3.org/2000/svg"
   xmlns="http://www.w3.org/2000/svg"
   xmlns:sodipodi="http://sodipodi.sourceforge.net/DTD/sodipodi-0.dtd"
   xmlns:inkscape="http://www.inkscape.org/namespaces/inkscape"
   id="svg2443"
   sodipodi:version="0.32"
   inkscape:version="0.48.1 r9760"
   width="68.849136"
   height="85"
   xml:space="preserve"
   sodipodi:docname="tlenscp.pdf"
   inkscape:output_extension="org.inkscape.output.svg.inkscape"
   version="1.0"><metadata
     id="metadata2448"><rdf:RDF><cc:Work
         rdf:about=""><dc:format>image/svg+xml</dc:format><dc:type
           rdf:resource="http://purl.org/dc/dcmitype/StillImage" /><dc:title></dc:title></cc:Work></rdf:RDF></metadata><defs
     id="defs2446"><inkscape:perspective
       sodipodi:type="inkscape:persp3d"
       inkscape:vp_x="0 : 526.18109 : 1"
       inkscape:vp_y="0 : 1000 : 0"
       inkscape:vp_z="744.09448 : 526.18109 : 1"
       inkscape:persp3d-origin="372.04724 : 350.78739 : 1"
       id="perspective2450" /><clipPath
       clipPathUnits="userSpaceOnUse"
       id="clipPath2460"><path
         d="M 0,2555.24 0,0 l 2066.97,0 0,2555.24 -2066.97,0 z"
         id="path2462"
         inkscape:connector-curvature="0" /></clipPath><clipPath
       id="clipPath3065"
       clipPathUnits="userSpaceOnUse"><path
         id="path3067"
         d="m 318.325,544.25 101.195,0 0,-64.65 -101.195,0 0,64.65 z"
         inkscape:connector-curvature="0" /></clipPath><clipPath
       id="clipPath2929"
       clipPathUnits="userSpaceOnUse"><path
         id="path2931"
         d="m 51.215,514.49 118.677,0 0,20.016 -118.677,0 0,-20.016 z"
         inkscape:connector-curvature="0" /></clipPath><clipPath
       id="clipPath2917"
       clipPathUnits="userSpaceOnUse"><path
         id="path2919"
         d="m 51.215,514.49 118.677,0 0,20.016 -118.677,0 0,-20.016 z"
         inkscape:connector-curvature="0" /></clipPath><clipPath
       id="clipPath2425"
       clipPathUnits="userSpaceOnUse"><path
         id="path2427"
         d="m 196.725,544.3 121.65,0 0,-68.4 -121.65,0 0,68.4 z"
         inkscape:connector-curvature="0" /></clipPath><inkscape:perspective
       inkscape:persp3d-origin="300 : 400 : 1"
       inkscape:vp_z="700 : 600 : 1"
       inkscape:vp_y="0 : 1000 : 0"
       inkscape:vp_x="-50 : 600 : 1"
       id="perspective2415"
       sodipodi:type="inkscape:persp3d" /></defs><sodipodi:namedview
     inkscape:window-height="683"
     inkscape:window-width="1280"
     inkscape:pageshadow="2"
     inkscape:pageopacity="0.0"
     guidetolerance="10.0"
     gridtolerance="10.0"
     objecttolerance="10.0"
     borderopacity="1.0"
     bordercolor="#666666"
     pagecolor="#ffffff"
     id="base"
     showgrid="false"
     inkscape:zoom="1.55625"
     inkscape:cx="80.075941"
     inkscape:cy="-1.1020454"
     inkscape:window-x="0"
     inkscape:window-y="0"
     inkscape:current-layer="g2452"
     showguides="true"
     inkscape:guide-bbox="true"
     fit-margin-top="0"
     fit-margin-left="0"
     fit-margin-right="0"
     fit-margin-bottom="0"
     inkscape:window-maximized="0" /><g
     id="g2452"
     inkscape:groupmode="layer"
     inkscape:label="logo_CPP"
     transform="matrix(1.25,0,0,-1.25,-1.2,83.424989)"><g
       id="g4370"
       transform="matrix(0.26647366,0,0,0.26647366,0.64023161,-0.92424964)"><g
         transform="translate(1.2,-1.5993139)"
         id="g4269"><path
           id="path2464"
           style="fill:#009e4c;fill-opacity:1;fill-rule:nonzero;stroke:none"
           d="m 0,152.154 c 0,57.091 46.2812,103.37 103.371,103.37 57.045,0 103.326,-46.279 103.326,-103.37 C 206.697,95.0578 160.416,48.7809 103.371,48.7809 46.2812,48.7809 0,95.0578 0,152.154 l 0,0"
           inkscape:connector-curvature="0" /><g
           id="g3288"><path
             d="m 39.2621,105.367 128.1699,0 0,-4.02 -128.1699,0 0,4.02"
             style="fill:#ffffff;fill-opacity:1;fill-rule:nonzero;stroke:none"
             id="path2466"
             inkscape:connector-curvature="0" /><path
             d="m 35.2301,98.3039 136.2369,0 0,-4.0148 -136.2369,0 0,4.0148"
             style="fill:#ffffff;fill-opacity:1;fill-rule:nonzero;stroke:none"
             id="path2468"
             inkscape:connector-curvature="0" /><path
             d="m 43.3004,108.402 0,45.331 c 0,10.459 8.5058,18.938 19.0019,18.938 10.4938,0 19.0008,-8.479 19.0008,-18.938 l 0,-45.331 -4.0312,0 0,45.331 c 0,8.239 -6.7028,14.922 -14.9696,14.922 -8.2691,0 -14.9722,-6.683 -14.9722,-14.922 l 0,-45.331 -4.0297,0 0,0 z m 4.0297,4.019 29.9418,0 0,-4.019 -29.9418,0 0,4.019"
             style="fill:#ffffff;fill-opacity:1;fill-rule:nonzero;stroke:none"
             id="path2470"
             inkscape:connector-curvature="0" /><path
             d="m 84.3531,108.402 0,45.333 c 0,10.457 8.509,18.936 19.0039,18.936 10.493,0 18.998,-8.479 18.998,-18.936 l 0,-45.333 -4.031,0 0,45.333 c 0,8.239 -6.7,14.92 -14.967,14.92 -8.2691,0 -14.9718,-6.681 -14.9718,-14.92 l 0,-45.333 -4.0321,0 0,0 z m 4.0321,4.019 29.9388,0 0,-4.019 -29.9388,0 0,4.019"
             style="fill:#ffffff;fill-opacity:1;fill-rule:nonzero;stroke:none"
             id="path2472"
             inkscape:connector-curvature="0" /><path
             d="m 125.406,108.402 0,45.333 c 0,10.457 8.514,18.936 19.006,18.936 10.49,0 19.002,-8.479 19.002,-18.936 l 0,-45.333 -4.029,0 0,45.333 c 0,8.239 -6.707,14.92 -14.973,14.92 -8.271,0 -14.973,-6.681 -14.973,-14.92 l 0,-45.333 -4.033,0 0,0 z m 4.033,4.019 29.946,0 0,-4.019 -29.946,0 0,4.019"
             style="fill:#ffffff;fill-opacity:1;fill-rule:nonzero;stroke:none"
             id="path2474"
             inkscape:connector-curvature="0" /></g><g
           id="g3275"><path
             d="m 43.2793,198.839 -1.7699,0 c -0.5403,0 -0.8102,0.269 -0.8102,0.809 l 0,1.2 c 0,0.57 -0.1801,1.02 -0.5398,1.411 -0.3903,0.389 -0.8102,0.599 -1.2903,0.599 l -3.9,0 c -0.5101,0 -0.93,-0.18 -1.2898,-0.57 -0.3902,-0.39 -0.5703,-0.87 -0.5703,-1.44 l 0,-11.969 c 0,-0.571 0.1801,-1.021 0.5398,-1.411 0.3903,-0.39 0.8102,-0.6 1.2903,-0.6 l 3.93,0 c 0.4801,0 0.9,0.18 1.2598,0.57 0.3902,0.39 0.5703,0.87 0.5703,1.441 l 0,1.229 c 0,0.51 0.2699,0.78 0.8102,0.78 l 1.7394,0 c 0.5403,0 0.8102,-0.27 0.8102,-0.78 l 0,-1.229 c 0,-1.441 -0.5098,-2.641 -1.5,-3.571 -0.9902,-0.929 -2.2199,-1.41 -3.6899,-1.41 l -3.93,0 c -1.4403,0 -2.67,0.481 -3.6602,1.41 -1.0199,0.93 -1.5301,2.13 -1.5301,3.571 l 0,11.969 c 0,1.44 0.5102,2.64 1.5,3.57 1.0203,0.93 2.25,1.41 3.7203,1.41 l 3.9,0 c 1.47,0 2.6997,-0.48 3.6899,-1.41 1.0203,-0.93 1.5301,-2.13 1.5301,-3.57 l 0,-1.23 c 0,-0.51 -0.27,-0.779 -0.8098,-0.779"
             style="fill:#ffffff;fill-opacity:1;fill-rule:nonzero;stroke:none"
             id="path2476"
             inkscape:connector-curvature="0" /><path
             d="m 58.609,183.898 -1.7699,0 c -0.5403,0 -0.8102,0.27 -0.8102,0.78 l 0,9.9 c 0,0.57 -0.1797,1.02 -0.5402,1.41 -0.3895,0.391 -0.8102,0.601 -1.2899,0.601 l -4.1699,0 0,-11.911 c 0,-0.51 -0.2699,-0.78 -0.8101,-0.78 l -1.77,0 c -0.5402,0 -0.8101,0.27 -0.8101,0.78 l 0,20.1 c 0,0.42 0.3601,0.72 1.0801,0.87 0.45,0.061 0.93,0.12 1.4101,0.18 0.2699,0.03 0.4801,-0.03 0.6301,-0.21 0.1801,-0.18 0.2699,-0.359 0.2699,-0.57 l 0,-5.49 4.1699,0 c 1.47,0 2.7,-0.48 3.6899,-1.41 1.0199,-0.93 1.5301,-2.13 1.5301,-3.57 l 0,-9.9 c 0,-0.51 -0.27,-0.78 -0.8098,-0.78"
             style="fill:#ffffff;fill-opacity:1;fill-rule:nonzero;stroke:none"
             id="path2478"
             inkscape:connector-curvature="0" /><path
             d="m 65.1484,183.898 -1.7699,0 c -0.5402,0 -0.8101,0.27 -0.8101,0.78 l 0,14.1 c 0,0.51 0.2699,0.78 0.8101,0.78 l 1.7699,0 c 0.5403,0 0.8102,-0.27 0.8102,-0.78 l 0,-14.1 c 0,-0.51 -0.2699,-0.78 -0.8102,-0.78 z m 0.5704,18.96 -2.9102,0 c -0.5398,0 -0.8102,0.271 -0.8102,0.78 l 0,1.41 c 0,0.51 0.2704,0.78 0.8102,0.78 l 2.9102,0 c 0.5402,0 0.8101,-0.27 0.8101,-0.78 l 0,-1.41 c 0,-0.509 -0.2699,-0.78 -0.8101,-0.78"
             style="fill:#ffffff;fill-opacity:1;fill-rule:nonzero;stroke:none"
             id="path2480"
             inkscape:connector-curvature="0" /><path
             d="m 90.4688,183.898 -1.7403,0 c -0.5699,0 -0.8398,0.27 -0.8398,0.78 l 0,9.99 c 0,0.541 -0.1801,0.99 -0.5403,1.38 -0.3898,0.39 -0.8097,0.6 -1.2898,0.6 l -2.3398,0 c -0.4801,0 -0.9004,-0.18 -1.2602,-0.57 -0.3902,-0.39 -0.5699,-0.84 -0.5699,-1.41 l 0,-9.99 c 0,-0.33 -0.2403,-0.6 -0.7203,-0.78 l -1.8598,0 c -0.5398,0 -0.8102,0.27 -0.8102,0.78 l 0,9.99 c 0,0.57 -0.18,1.02 -0.5398,1.41 -0.3902,0.39 -0.8102,0.57 -1.2902,0.57 l -2.3399,0 c -0.5101,0 -0.9301,-0.18 -1.2898,-0.57 -0.3903,-0.39 -0.5703,-0.869 -0.5703,-1.41 l 0.03,-9.99 c 0,-0.51 -0.2699,-0.78 -0.8398,-0.78 l -1.7402,0 c -0.57,0 -0.8098,0.27 -0.8098,0.78 l 0,9.99 c 0,1.41 0.5102,2.58 1.5,3.51 1.0199,0.93 2.25,1.38 3.7199,1.38 l 2.3399,0 c 1.3504,0 2.5203,-0.42 3.5101,-1.23 0.9899,0.81 2.1598,1.23 3.5403,1.23 l 2.3398,0 c 1.4703,0 2.7004,-0.45 3.6898,-1.38 1.0204,-0.93 1.5305,-2.1 1.5305,-3.51 l 0,-9.99 c 0,-0.51 -0.2699,-0.78 -0.8101,-0.78"
             style="fill:#ffffff;fill-opacity:1;fill-rule:nonzero;stroke:none"
             id="path2482"
             inkscape:connector-curvature="0" /><path
             d="m 97.0078,183.898 -1.7699,0 c -0.5402,0 -0.8102,0.27 -0.8102,0.78 l 0,14.1 c 0,0.51 0.27,0.78 0.8102,0.78 l 1.7699,0 c 0.5402,0 0.8102,-0.27 0.8102,-0.78 l 0,-14.1 c 0,-0.51 -0.27,-0.78 -0.8102,-0.78 z m 0.5703,18.96 -2.9101,0 c -0.5403,0 -0.8102,0.271 -0.8102,0.78 l 0,1.41 c 0,0.51 0.2699,0.78 0.8102,0.78 l 2.9101,0 c 0.5403,0 0.8102,-0.27 0.8102,-0.78 l 0,-1.41 c 0,-0.509 -0.2699,-0.78 -0.8102,-0.78"
             style="fill:#ffffff;fill-opacity:1;fill-rule:nonzero;stroke:none"
             id="path2484"
             inkscape:connector-curvature="0" /><path
             d="m 109.668,196.048 c -0.39,0.39 -0.81,0.6 -1.289,0.6 l -2.34,0 c -0.511,0 -0.931,-0.18 -1.29,-0.57 -0.361,-0.39 -0.541,-0.869 -0.541,-1.41 l 0,-1.98 4.171,0 c 0.479,0 0.899,0.18 1.26,0.571 0.389,0.389 0.57,0.87 0.57,1.409 0,0.541 -0.181,0.99 -0.541,1.38 z m 2.431,-4.89 c -1.021,-0.93 -2.25,-1.38 -3.72,-1.38 l -4.171,0 0,-0.99 c 0,-0.54 0.18,-0.99 0.541,-1.38 0.359,-0.39 0.779,-0.6 1.29,-0.6 1.98,0 3.48,0.149 4.529,0.42 0.3,0.09 0.54,0 0.721,-0.18 0.18,-0.209 0.27,-0.39 0.27,-0.57 l 0,-1.23 c 0,-0.9 -1.83,-1.35 -5.52,-1.35 -1.471,0 -2.701,0.45 -3.691,1.38 -1.02,0.929 -1.53,2.101 -1.53,3.51 l 0,5.88 c 0,1.41 0.51,2.55 1.5,3.48 1.02,0.93 2.25,1.41 3.721,1.41 l 2.34,0 c 1.47,0 2.699,-0.45 3.689,-1.38 1.02,-0.93 1.531,-2.1 1.531,-3.51 0,-1.409 -0.511,-2.579 -1.5,-3.51"
             style="fill:#ffffff;fill-opacity:1;fill-rule:nonzero;stroke:none"
             id="path2486"
             inkscape:connector-curvature="0" /><path
             d="m 133.22,200.848 c 0,0.57 -0.181,1.05 -0.54,1.44 -0.391,0.39 -0.811,0.6 -1.29,0.6 l -6.511,0 0,-6.03 6.511,0 c 0.509,0 0.929,0.21 1.29,0.601 0.389,0.389 0.57,0.869 0.57,1.409 l -0.03,1.98 z m 3.389,-1.98 c 0,-1.44 -0.54,-2.64 -1.529,-3.57 -0.99,-0.93 -2.221,-1.41 -3.69,-1.41 l -6.511,0 0,-9.21 c 0,-0.51 -0.27,-0.78 -0.84,-0.78 l -1.74,0 c -0.539,0 -0.81,0.27 -0.81,0.78 l 0,20.37 c 0,0.541 0.271,0.81 0.81,0.81 l 9.091,-0.03 c 1.469,0 2.7,-0.48 3.719,-1.41 1.02,-0.93 1.5,-2.13 1.5,-3.57 l 0,-1.98"
             style="fill:#ffffff;fill-opacity:1;fill-rule:nonzero;stroke:none"
             id="path2488"
             inkscape:connector-curvature="0" /><path
             d="m 144.973,190.768 -4.17,0 c -0.51,0 -0.93,-0.179 -1.289,-0.57 -0.391,-0.39 -0.571,-0.87 -0.571,-1.41 0,-0.54 0.18,-0.99 0.539,-1.38 0.391,-0.39 0.811,-0.6 1.321,-0.6 l 4.17,0 0,3.96 z m 2.58,-6.87 -6.75,0 c -1.47,0 -2.699,0.45 -3.69,1.38 -1.02,0.929 -1.53,2.101 -1.53,3.51 0,1.41 0.51,2.58 1.5,3.51 1.021,0.93 2.25,1.38 3.72,1.38 l 4.17,0 0,0.99 c 0,0.57 -0.18,1.02 -0.539,1.41 -0.391,0.39 -0.811,0.57 -1.291,0.57 -1.83,0 -3.09,-0.09 -3.81,-0.24 -0.27,-0.06 -0.51,0.03 -0.69,0.24 -0.15,0.15 -0.241,0.33 -0.241,0.54 l 0,1.26 c 0,0.391 0.211,0.63 0.661,0.75 0.871,0.24 2.25,0.36 4.08,0.36 1.47,0 2.701,-0.45 3.69,-1.38 1.021,-0.93 1.53,-2.1 1.53,-3.51 l 0,-9.99 c 0,-0.51 -0.269,-0.78 -0.81,-0.78"
             style="fill:#ffffff;fill-opacity:1;fill-rule:nonzero;stroke:none"
             id="path2490"
             inkscape:connector-curvature="0" /><path
             d="m 160.303,196.888 c -0.18,-0.179 -0.391,-0.27 -0.6,-0.27 -1.56,0.03 -2.82,0.06 -3.75,0.06 -0.45,0 -0.871,-0.21 -1.26,-0.6 -0.39,-0.39 -0.57,-0.869 -0.57,-1.41 l 0,-9.961 c 0,-0.539 -0.27,-0.809 -0.81,-0.809 l -1.741,0 c -0.539,0 -0.809,0.27 -0.809,0.78 l 0,9.99 c 0,1.44 0.509,2.64 1.5,3.57 0.99,0.93 2.25,1.41 3.719,1.351 0.481,0 1.741,-0.061 3.781,-0.151 0.54,-0.03 0.809,-0.3 0.809,-0.809 l 0,-1.201 c 0,-0.21 -0.09,-0.39 -0.269,-0.54"
             style="fill:#ffffff;fill-opacity:1;fill-rule:nonzero;stroke:none"
             id="path2492"
             inkscape:connector-curvature="0" /><path
             d="m 165.372,183.898 -1.77,0 c -0.539,0 -0.81,0.27 -0.81,0.78 l 0,14.1 c 0,0.51 0.271,0.78 0.81,0.78 l 1.77,0 c 0.54,0 0.81,-0.27 0.81,-0.78 l 0,-14.1 c 0,-0.51 -0.27,-0.78 -0.81,-0.78 z m 0.57,18.96 -2.91,0 c -0.54,0 -0.809,0.271 -0.809,0.78 l 0,1.41 c 0,0.51 0.269,0.78 0.809,0.78 l 2.91,0 c 0.54,0 0.81,-0.27 0.81,-0.78 l 0,-1.41 c 0,-0.509 -0.27,-0.78 -0.81,-0.78"
             style="fill:#ffffff;fill-opacity:1;fill-rule:nonzero;stroke:none"
             id="path2494"
             inkscape:connector-curvature="0" /><path
             d="m 177.369,185.188 c -1.019,-0.87 -2.25,-1.29 -3.721,-1.29 -3.479,0 -5.218,0.45 -5.218,1.35 l 0,1.23 c 0,0.18 0.09,0.361 0.239,0.54 0.181,0.21 0.42,0.3 0.72,0.21 1.05,-0.271 2.461,-0.42 4.259,-0.42 0.511,0 0.961,0.149 1.291,0.451 0.36,0.33 0.54,0.75 0.54,1.259 0,0.45 -0.241,0.81 -0.72,1.111 -0.09,0.029 -0.54,0.239 -1.35,0.599 -1.921,0.84 -3.03,1.38 -3.36,1.59 -1.08,0.75 -1.619,1.8 -1.619,3.09 0,1.41 0.509,2.551 1.5,3.39 0.989,0.84 2.25,1.26 3.718,1.26 3.42,0 5.131,-0.45 5.131,-1.349 l 0,-1.231 c 0,-0.18 -0.09,-0.36 -0.24,-0.54 -0.18,-0.21 -0.42,-0.27 -0.721,-0.21 -1.048,0.27 -2.459,0.42 -4.17,0.42 -0.539,0 -0.989,-0.15 -1.319,-0.45 -0.33,-0.33 -0.511,-0.75 -0.511,-1.26 0,-0.45 0.241,-0.809 0.691,-1.11 0.12,-0.09 0.57,-0.27 1.35,-0.6 1.83,-0.75 2.94,-1.29 3.39,-1.59 1.08,-0.75 1.62,-1.799 1.62,-3.09 0,-1.41 -0.51,-2.52 -1.5,-3.36"
             style="fill:#ffffff;fill-opacity:1;fill-rule:nonzero;stroke:none"
             id="path2496"
             inkscape:connector-curvature="0" /></g></g><g
         transform="translate(1.2,-1.5993139)"
         id="g4216"><g
           id="g3361"
           style="fill:#07a6a6;fill-opacity:1"
           transform="translate(1.02811,34.441767)"><path
             id="path2911"
             style="fill:#07a6a6;fill-opacity:1;fill-rule:nonzero;stroke:none"
             d="m 32.076275,-10.48786 c 1.29375,0.0675 4.36375,0.105 6.22125,-0.0375 3.41625,-0.24875 4.88375,-2.19125 4.88375,-4.6375 0,-3.19875 -2.49875,-5.47125 -6.825,-5.825 -1.47375,-0.11375 -3.1975,-0.11375 -4.28,0 l 0,10.5 z m 0,-11.915 c 1.0825,0 3.88875,-0.24875 5.8375,0.075 6.0875,1.01625 9.225,2.995 9.225,7.34625 0,4.35 -2.75375,5.89375 -11.12875,5.89375 l -7.71125,0 0,-24.60625 c 0.6025,0.0375 1.24125,0.09 1.88875,0.09 0.60125,0 1.20375,-0.0525 1.88875,-0.09 l 0,11.29125"
             inkscape:connector-curvature="0" /><path
             id="path2921"
             style="fill:#07a6a6;fill-opacity:1;fill-rule:nonzero;stroke:none"
             d="m 59.086275,-25.57161 c 0,-1.00875 0.045,-1.64125 -0.09875,-2.6425 -0.3225,-2.24375 -2.08375,-4.7275 -5.0175,-4.885 -2.46,-0.15125 -3.62625,1.78375 -3.43875,3.5675 0.41375,3.99 1.95625,3.485 6.68875,4.96 l 1.86625,0.5875 0,-1.5875 z m 0,2.4375 -0.7,-0.2775 c -1.58,-0.6175 -1.535,-0.5425 -4.41625,-1.16 -3.39375,-0.7375 -6.8775,-1.15875 -7.065,-5.035 -0.09,-2.44625 2.4675,-4.305 5.34125,-4.45625 2.8375,-0.15 5.67375,1.08375 6.60625,3.4475 l 0,-2.98875 5.6725,0 0,0.6625 -1.955,0 0,10.81625 c 0,2.86875 -0.5125,5.54 -6.64375,5.81125 -1.6775,0.075 -2.1,-0.0825 -3.30375,-0.23375 -1.39125,-0.195 -2.6925,-0.61625 -3.62625,-0.97 l 0,-5.19375 0.835,0 1.02375,2.1675 c 0.88,1.86625 1.67,3.87625 4.695,3.605 3.02375,-0.27 3.53625,-1.93375 3.53625,-3.7175 l 0,-2.4775"
             inkscape:connector-curvature="0" /><path
             id="path2923"
             style="fill:#07a6a6;fill-opacity:1;fill-rule:nonzero;stroke:none"
             d="m 75.141275,-33.60411 -8.41125,0 0,0.6625 2.09125,0 0,15.50625 -2.18125,0 0,0.6925 5.44,0 0,-3.5225 c 0.225,1.27125 2.17375,3.635 5.24375,3.635 0.8875,0 1.6775,-0.195 2.565,-0.57875 l 0,-6.12 -0.8875,0 -1.11375,2.83 c -0.7975,1.98 -1.39875,3.25125 -2.61,2.6725 -3.16,-1.51375 -2.8825,-5.14875 -2.8825,-8.56625 l 0,-6.54875 2.74625,0 0,-0.6625"
             inkscape:connector-curvature="0" /><path
             id="path2933"
             style="fill:#07a6a6;fill-opacity:1;fill-rule:nonzero;stroke:none"
             d="m 82.228775,-33.60411 0,0.6625 2.1375,0 0,15.50625 -2.0025,0 0,0.6925 5.62875,0 0,-16.19875 1.9025,0 0,-0.6625 -7.66625,0 z m 5.86125,20.775 c 0,-1.08375 -1.07625,-1.85875 -2.28,-1.85875 -1.16625,0 -2.23375,0.8575 -2.23375,1.82125 0,0.97125 1.0225,1.89625 2.18875,1.89625 1.24875,0 2.325,-0.85 2.325,-1.85875"
             inkscape:connector-curvature="0" /><path
             id="path2935"
             style="fill:#07a6a6;fill-opacity:1;fill-rule:nonzero;stroke:none"
             d="m 103.77003,-20.69411 c -0.88126,2.63375 -1.76126,3.68 -4.183755,3.68 -2.0925,0 -4.74,-0.6925 -4.92875,-2.83 -0.135,-1.89625 2.235,-2.6725 4.3725,-3.25875 3.624995,-1.03875 7.853745,-2.12375 7.718745,-5.5025 -0.0975,-3.2225 -3.3025,-5.5775 -7.673745,-5.495 -2.50625,0.0375 -5.3425,0.85 -6.32,1.43 l 0,5.54 0.835,0 0.9775,-2.7925 c 1.06875,-3.13875 2.28,-3.17625 4.18375,-3.3275 2.647495,-0.2325 5.672495,0.85125 5.906245,3.01875 0.32376,2.6725 -3.94999,3.3725 -6.651245,4.185 -1.90375,0.58 -5.6275,1.63375 -5.6275,4.81 0,3.71875 4.8375,4.96 7.395,4.96 2.137495,0 4.604995,-0.7 5.484995,-1.15875 l 0,-5.08125 -0.88,0 -0.60874,1.8225"
             inkscape:connector-curvature="0" /></g><g
           id="g3355"
           style="fill:#231f20;fill-opacity:1"
           transform="translate(1.02811,34.441767)"><path
             id="path2937"
             style="fill:#231f20;fill-opacity:1;fill-rule:nonzero;stroke:none"
             d="m 117.30503,-33.76161 c -0.6925,0.0375 -1.29501,0.0525 -1.89626,0.0525 -0.63999,0 -1.28625,-0.015 -1.88874,-0.0525 l 0,22.9725 c -4.35625,0 -6.98876,-0.21875 -9.44876,-0.42875 0.0438,0.35375 0.15751,0.715 0.15751,1.06125 0,0.36125 -0.11376,0.685 -0.15751,1.07625 l 22.255,0 c -0.0463,-0.39125 -0.10624,-0.715 -0.10624,-1.07625 0,-0.34625 0.06,-0.7075 0.10624,-1.06125 -2.15999,0.21 -5.18499,0.42875 -9.02124,0.42875 l 0,-22.9725"
             inkscape:connector-curvature="0" /><path
             id="path2939"
             style="fill:#231f20;fill-opacity:1;fill-rule:nonzero;stroke:none"
             d="m 127.50628,-20.65661 c 0.33124,1.85875 1.81375,3.6425 3.85999,3.7175 2.46,0.11375 3.39376,-2.055 3.43876,-3.98875 l 0.0525,-1.82125 -7.72,0 0.36875,2.0925 z m 11.30125,-6.66125 -0.8875,0 -0.045,-0.475 c -0.23375,-2.32625 -2.1375,-5.6525 -5.76375,-5.4575 -4.08499,0.18875 -4.97374,3.76375 -4.97374,7.78375 l 0,1.97875 11.6175,0 c 0.42125,3.56875 -2.55126,7.3325 -7.2,7.28625 -4.79375,-0.075 -8.04376,-4.06375 -8.32126,-8.79875 -0.27874,-5.15625 3.58126,-9.145 8.59876,-9.0625 3.94999,0.075 6.64375,2.98125 6.9225,6.195 l 0.0525,0.55"
             inkscape:connector-curvature="0" /><path
             id="path2941"
             style="fill:#231f20;fill-opacity:1;fill-rule:nonzero;stroke:none"
             d="m 155.14128,-23.10286 -0.45875,1.4 c -1.03126,3.37125 -2.235,4.8775 -4.37125,4.9225 -4.51375,0.0825 -5.25875,-4.81 -5.16126,-8.49125 0.09,-3.40875 0.45876,-7.79 5.20626,-7.8275 2.79124,-0.0375 4.50749,2.1675 4.9725,4.53125 l 0.23375,1.25 0.83499,0 -0.135,-0.85875 c -0.69999,-4.45625 -3.63374,-5.85625 -6.88375,-5.81125 -5.2525,0.0375 -8.22375,4.615 -8.22375,8.95 0,4.53875 3.48376,8.76125 8.915,8.9575 1.4,0.0375 3.815,-0.075 5.9525,-1.12875 l 0,-5.89375 -0.88124,0"
             inkscape:connector-curvature="0" /><path
             id="path2943"
             style="fill:#231f20;fill-opacity:1;fill-rule:nonzero;stroke:none"
             d="m 168.69128,-33.60411 0,0.6625 2.46125,0 0,11.125 c 0,2.21375 0.045,4.41875 -2.64876,4.33625 -3.905,-0.11375 -4.41624,-4.69 -4.41624,-8.09125 l 0,-7.37 2.64749,0 0,-0.6625 -8.13249,0 0,0.6625 1.94875,0 0,21.5125 -2.0925,0 0,0.7 5.62875,0 0,-8.80625 c 0.55625,1.475 2.92624,3.25875 5.44,3.06375 3.76874,-0.27125 5.0625,-1.58875 5.0625,-5.14875 l 0,-11.32125 2.05499,0 0,-0.6625 -7.95374,0"
             inkscape:connector-curvature="0" /></g></g></g></g></svg>