<?xml version="1.0" encoding="UTF-8" standalone="no"?>
<!-- Created with Inkscape (http://www.inkscape.org/) -->

<svg
   xmlns:dc="http://purl.org/dc/elements/1.1/"
   xmlns:cc="http://creativecommons.org/ns#"
   xmlns:rdf="http://www.w3.org/1999/02/22-rdf-syntax-ns#"
   xmlns:svg="http://www.w3.org/2000/svg"
   xmlns="http://www.w3.org/2000/svg"
   xmlns:sodipodi="http://sodipodi.sourceforge.net/DTD/sodipodi-0.dtd"
   xmlns:inkscape="http://www.inkscape.org/namespaces/inkscape"
   width="160"
   height="53.824017"
   id="svg2"
   version="1.1"
   inkscape:version="0.48.1 r9760"
   sodipodi:docname="tlupmc.pdf">
  <defs
     id="defs4">
    <clipPath
       id="clipPath20"
       clipPathUnits="userSpaceOnUse">
      <path
         id="path22"
         d="m 0,0 6120,0 0,5952.75 -6120,0 L 0,0 z"
         inkscape:connector-curvature="0" />
    </clipPath>
    <inkscape:perspective
       sodipodi:type="inkscape:persp3d"
       inkscape:vp_x="0 : 0.5 : 1"
       inkscape:vp_y="0 : 1000 : 0"
       inkscape:vp_z="1 : 0.5 : 1"
       inkscape:persp3d-origin="0.5 : 0.33333333 : 1"
       id="perspective3256" />
    <inkscape:perspective
       id="perspective3302"
       inkscape:persp3d-origin="372.04724 : 350.78739 : 1"
       inkscape:vp_z="744.09448 : 526.18109 : 1"
       inkscape:vp_y="0 : 1000 : 0"
       inkscape:vp_x="0 : 526.18109 : 1"
       sodipodi:type="inkscape:persp3d" />
  </defs>
  <sodipodi:namedview
     id="base"
     pagecolor="#ffffff"
     bordercolor="#666666"
     borderopacity="1.0"
     inkscape:pageopacity="0.0"
     inkscape:pageshadow="2"
     inkscape:zoom="3.959798"
     inkscape:cx="54.056626"
     inkscape:cy="22.188184"
     inkscape:document-units="px"
     inkscape:current-layer="g12"
     showgrid="false"
     fit-margin-top="0"
     fit-margin-left="0"
     fit-margin-right="0"
     fit-margin-bottom="0"
     inkscape:window-width="1280"
     inkscape:window-height="686"
     inkscape:window-x="0"
     inkscape:window-y="0"
     inkscape:window-maximized="0" />
  <metadata
     id="metadata7">
    <rdf:RDF>
      <cc:Work
         rdf:about="">
        <dc:format>image/svg+xml</dc:format>
        <dc:type
           rdf:resource="http://purl.org/dc/dcmitype/StillImage" />
        <dc:title></dc:title>
      </cc:Work>
    </rdf:RDF>
  </metadata>
  <g
     inkscape:label="Calque 1"
     inkscape:groupmode="layer"
     id="layer1"
     transform="translate(-139.11589,-490.62481)">
    <g
       transform="matrix(0.31904418,0,0,0.31904418,119.31161,368.82666)"
       id="layer1-9"
       inkscape:label="Layer 1">
      <g
         transform="matrix(1.2490775,0,0,-1.2502625,-263.93544,832.50537)"
         inkscape:label="ink_ext_XXXXXX"
         inkscape:groupmode="layer"
         id="g12">
        <g
           transform="matrix(0.11662671,0,0,0.11662671,-43.395706,-49.926904)"
           id="g14">
          <g
             id="g16">
            <g
               clip-path="url(#clipPath20)"
               id="g18">
              <path
                 id="path26"
                 style="fill:#f14b1c;fill-opacity:1;fill-rule:nonzero;stroke:none"
                 d="m 2902.0545,2461.5973 0,-97.1752 140.7539,0 0,97.1752 c 0,45.4571 -28.1637,74.3225 -69.9829,74.3225 -41.8624,0 -70.771,-28.8654 -70.771,-74.3225"
                 inkscape:connector-curvature="0" />
              <path
                 id="path28"
                 style="fill:#f14b1c;fill-opacity:1;fill-rule:nonzero;stroke:none"
                 d="m 2721.2732,2461.5973 0,-97.1752 140.6892,0 0,97.1752 c 0,45.4571 -28.0774,74.3225 -69.9829,74.3225 -41.8732,0 -70.7063,-28.8654 -70.7063,-74.3225"
                 inkscape:connector-curvature="0" />
              <path
                 id="path30"
                 style="fill:#f14b1c;fill-opacity:1;fill-rule:nonzero;stroke:none"
                 d="m 3084.1311,2461.5973 0,-97.1752 69.7563,0 0,171.4977 c -41.884,0 -69.7563,-28.8654 -69.7563,-74.3225"
                 inkscape:connector-curvature="0" />
              <path
                 id="path32"
                 style="fill:#f14b1c;fill-opacity:1;fill-rule:nonzero;stroke:none"
                 d="m 2611.1227,2535.9198 -1.1227,-0.043 0,-171.4545 71.1164,0 0,97.1752 c 0,45.4571 -28.1421,74.3225 -69.9937,74.3225"
                 inkscape:connector-curvature="0" />
              <path
                 id="path34"
                 style="fill:#8c6851;fill-opacity:1;fill-rule:nonzero;stroke:none"
                 d="m 3068.457,3517.7 c -2.3749,0.2698 -4.8145,0.3994 -7.1894,0.3994 l -0.032,0 -0.9283,-0.054 -0.9284,0.054 c -48.7711,0 -88.2154,-39.5091 -88.2154,-88.2479 l 0,-518.8109 c 0,-50.5415 -40.9881,-91.7022 -91.4324,-92.2527 -50.4658,0.5505 -91.3891,41.7112 -91.3891,92.2527 l 0,518.8109 c 0,48.7388 -39.5847,88.2479 -88.2586,88.2479 l -0.9284,-0.054 -0.8744,0.054 c -2.472,0 -4.9116,-0.1296 -7.2541,-0.3994 C 2645.6446,3514.0729 2610,3476.1398 2610,3429.8515 l 0,-518.8109 c 0,-148.1916 120.546,-268.824 268.8132,-268.824 l 1.8351,0 c 148.224,0 268.8456,120.6324 268.8456,268.824 l 0,518.8109 c 0,46.2883 -35.7202,84.2214 -81.0369,87.8485"
                 inkscape:connector-curvature="0" />
              <path
                 id="path36"
                 style="fill:#8c6851;fill-opacity:1;fill-rule:nonzero;stroke:none"
                 d="m 4908.5567,3518.0994 c -69.8642,0 -133.6294,-26.8144 -181.5153,-70.7386 -47.8643,43.9242 -111.5539,70.7386 -181.4721,70.7386 -148.2456,0 -268.8455,-120.5892 -268.8455,-268.8348 l 0,-518.7893 c 0,-48.7496 39.4659,-88.2587 88.2262,-88.2587 48.7495,0 88.2802,39.5091 88.2802,88.2587 l 0,518.7893 c 0,50.9193 41.4522,92.2959 92.3391,92.2959 50.9085,0 92.2851,-41.3766 92.2851,-92.2959 l 0,-518.7893 c 0,-48.7496 39.5631,-88.2587 88.3342,-88.2587 l 1.8459,0 c 48.7172,0 88.2263,39.5091 88.2263,88.2587 l 0,518.7893 c 0,50.9193 41.4198,92.2959 92.2959,92.2959 50.9301,0 92.3607,-41.3766 92.3607,-92.2959 l 0,-518.7893 c 0,-48.7496 39.4551,-88.2587 88.2478,-88.2587 48.7387,0 88.2155,39.5091 88.2155,88.2587 l 0,518.7893 c 0,148.2456 -120.6324,268.8348 -268.824,268.8348"
                 inkscape:connector-curvature="0" />
              <path
                 id="path38"
                 style="fill:#8c6851;fill-opacity:1;fill-rule:nonzero;stroke:none"
                 d="m 5401.2981,3389.6623 c -83.768,-83.7356 -129.8727,-195.1167 -129.8727,-313.6009 0,-118.4411 46.1047,-229.7899 129.8727,-313.5039 172.9442,-172.9765 454.2686,-172.9765 627.1696,0 31.2942,31.1971 31.2942,81.9005 0,113.1192 -31.2943,31.305 -81.9329,31.305 -113.2055,0 -110.4637,-110.4313 -290.2194,-110.4313 -400.7694,0 -53.4776,53.5748 -82.9367,124.702 -82.9367,200.3847 0,75.7258 29.4591,146.907 82.9367,200.3954 110.55,110.496 290.3057,110.496 400.7694,0 31.2726,-31.2726 81.9112,-31.2726 113.2055,0 31.2942,31.2943 31.2942,81.9437 0,113.2055 -172.901,172.8903 -454.2254,172.8903 -627.1696,0"
                 inkscape:connector-curvature="0" />
              <path
                 id="path40"
                 style="fill:#8c6851;fill-opacity:1;fill-rule:nonzero;stroke:none"
                 d="m 4177.7242,3256.3892 c 0,144.8128 -117.8365,262.6709 -262.7032,262.6709 l -572.8392,0 c -2.9794,0 -5.9264,-0.1727 -8.8733,-0.5073 -43.4709,-4.4043 -77.3667,-41.1284 -77.3667,-85.7219 l 0.022,-0.9499 -0.022,-0.8636 c 0,-47.6592 38.6456,-86.3048 86.24,-86.3048 l 572.8392,0 c 49.4295,0 89.7051,-39.9625 90.1693,-89.2625 -0.4642,-49.3109 -40.7398,-89.295 -90.1693,-89.295 l -400.3808,0 c -144.7804,0 -262.6169,-117.8797 -262.6169,-262.7033 l 0.032,-0.8852 -0.032,-0.9283 0,-170.7852 c 0,-2.9578 0.1619,-5.9372 0.421,-8.8194 4.4475,-43.4816 41.1283,-77.3882 85.7866,-77.3882 l 0.8852,0.022 0.9175,-0.022 c 47.6593,0 86.1969,38.5699 86.1969,86.2076 l -1.7812,171.7135 c 0.5398,49.2569 40.7721,89.2842 90.1909,89.2842 l 400.3808,0 c 144.8667,0 262.7032,117.8473 262.7032,262.6709 l -0.011,0.9284 0.011,0.9391"
                 inkscape:connector-curvature="0" />
              <path
                 id="path42"
                 style="fill:#8c6851;fill-opacity:1;fill-rule:nonzero;stroke:none"
                 d="m 3324.1005,2362.3495 c -26.0804,0 -45.8997,5.5594 -62.8152,22.7448 l 21.7624,21.6976 c 10.8488,-10.8596 25.6053,-14.4651 41.5277,-14.4651 19.8302,0 30.4523,7.4592 30.4523,21.2658 0,6.0344 -1.684,11.0863 -5.3219,14.5083 -3.3788,3.1089 -7.2433,4.8253 -15.2099,6.0235 l -20.7909,2.8931 c -14.7134,2.1805 -25.5838,6.7467 -33.3129,14.2707 -8.2256,8.1933 -12.3277,19.3012 -12.3277,33.8419 0,30.6789 22.6908,52.1607 59.9114,52.1607 23.6731,0 40.8261,-5.8077 55.5611,-20.0569 l -21.2551,-21.0175 c -10.8704,10.3738 -23.9214,11.8635 -35.2775,11.8635 -17.8655,0 -26.5661,-9.9097 -26.5661,-21.7732 0,-4.3287 1.4357,-8.9489 5.0735,-12.3169 3.3788,-3.1413 8.9274,-5.7968 15.9332,-6.7684 l 20.2943,-2.893 c 15.7065,-2.1806 25.6162,-6.5309 32.8595,-13.2776 9.1864,-8.7115 13.2885,-21.2875 13.2885,-36.4974 0,-33.3237 -27.7859,-52.2039 -63.7867,-52.2039"
                 inkscape:connector-curvature="0" />
              <path
                 id="path44"
                 style="fill:#8c6851;fill-opacity:1;fill-rule:nonzero;stroke:none"
                 d="m 3498.5667,2498.1702 c -4.8253,5.5162 -12.3169,9.1541 -21.4925,9.1541 -9.1972,0 -16.9155,-3.6379 -21.7624,-9.1541 -6.5201,-7.2325 -8.2041,-15.2423 -8.2041,-48.3609 0,-33.0861 1.684,-41.0743 8.2041,-48.3069 4.8469,-5.5701 12.5652,-9.1756 21.7624,-9.1756 9.1756,0 16.6672,3.6055 21.4925,9.1756 6.5201,7.2326 8.4632,15.2208 8.4632,48.3069 0,33.1186 -1.9431,41.1284 -8.4632,48.3609 z m 24.8929,-116.9405 c -12.0794,-12.101 -26.8252,-18.8802 -46.3854,-18.8802 -19.5711,0 -34.5435,6.7792 -46.6553,18.8802 -17.3905,17.3689 -16.9048,38.883 -16.9048,68.5796 0,29.729 -0.4857,51.2432 16.9048,68.6229 12.1118,12.0794 27.0842,18.8586 46.6553,18.8586 19.5602,0 34.306,-6.7792 46.3854,-18.8586 17.3797,-17.3797 17.153,-38.8939 17.153,-68.6229 0,-29.6966 0.2267,-51.2107 -17.153,-68.5796"
                 inkscape:connector-curvature="0" />
              <path
                 id="path46"
                 style="fill:#8c6851;fill-opacity:1;fill-rule:nonzero;stroke:none"
                 d="m 3639.9144,2505.8778 -31.6181,0 0,-45.4247 31.6181,0 c 14.7457,0 24.4179,9.4347 24.4179,22.7123 0,13.2777 -9.6722,22.7124 -24.4179,22.7124 z m 26.1019,-142.071 -33.5827,68.6336 -24.1373,0 0,-68.6336 -33.5828,0 0,172.0482 67.3814,0 c 35.0401,0 55.8202,-23.9213 55.8202,-52.6896 0,-24.1481 -14.7458,-39.1097 -31.4022,-45.1548 l 38.4188,-74.2038 -38.9154,0"
                 inkscape:connector-curvature="0" />
              <path
                 id="path48"
                 style="fill:#8c6851;fill-opacity:1;fill-rule:nonzero;stroke:none"
                 d="m 3801.103,2436.0675 -35.0401,0 0,-42.305 35.0401,0 c 15.2207,0 22.4748,9.6722 22.4748,21.2767 0,11.5828 -7.2541,21.0283 -22.4748,21.0283 z m -2.1806,69.8103 -32.8595,0 0,-39.6279 32.8595,0 c 14.2708,0 22.2374,7.9882 22.2374,19.8193 0,11.8636 -7.9666,19.8086 -22.2374,19.8086 z m 5.5809,-142.071 -72.0231,0 0,172.0482 69.1193,0 c 33.5828,0 53.143,-18.8478 53.143,-48.3609 0,-19.0637 -12.5544,-31.3914 -21.255,-35.4934 10.3846,-4.8253 23.6731,-15.7065 23.6731,-38.6563 0,-32.1147 -21.9783,-49.5376 -52.6573,-49.5376"
                 inkscape:connector-curvature="0" />
              <path
                 id="path50"
                 style="fill:#8c6851;fill-opacity:1;fill-rule:nonzero;stroke:none"
                 d="m 3970.4956,2498.1702 c -4.8468,5.5162 -12.3277,9.1541 -21.5249,9.1541 -9.1756,0 -16.9047,-3.6379 -21.73,-9.1541 -6.5201,-7.2325 -8.2149,-15.2423 -8.2149,-48.3609 0,-33.0861 1.6948,-41.0743 8.2149,-48.3069 4.8253,-5.5701 12.5544,-9.1756 21.73,-9.1756 9.1972,0 16.6781,3.6055 21.5249,9.1756 6.5201,7.2326 8.4416,15.2208 8.4416,48.3069 0,33.1186 -1.9215,41.1284 -8.4416,48.3609 z m 24.8822,-116.9405 c -12.0795,-12.101 -26.8144,-18.8802 -46.4071,-18.8802 -19.5602,0 -34.5435,6.7792 -46.6013,18.8802 -17.4121,17.3689 -16.9155,38.883 -16.9155,68.5796 0,29.729 -0.4966,51.2432 16.9155,68.6229 12.0578,12.0794 27.0411,18.8586 46.6013,18.8586 19.5927,0 34.3276,-6.7792 46.4071,-18.8586 17.3905,-17.3797 17.153,-38.8939 17.153,-68.6229 0,-29.6966 0.2375,-51.2107 -17.153,-68.5796"
                 inkscape:connector-curvature="0" />
              <path
                 id="path52"
                 style="fill:#8c6851;fill-opacity:1;fill-rule:nonzero;stroke:none"
                 d="m 4148.3623,2363.8068 -68.1587,105.5952 0,-105.5952 -33.5827,0 0,172.0482 29.9665,0 68.137,-105.3684 0,105.3684 33.5936,0 0,-172.0482 -29.9557,0"
                 inkscape:connector-curvature="0" />
              <path
                 id="path54"
                 style="fill:#8c6851;fill-opacity:1;fill-rule:nonzero;stroke:none"
                 d="m 4319.8923,2363.8068 -68.137,105.5952 0,-105.5952 -33.572,0 0,172.0482 29.9665,0 68.1263,-105.3684 0,105.3684 33.5935,0 0,-172.0482 -29.9773,0"
                 inkscape:connector-curvature="0" />
              <path
                 id="path56"
                 style="fill:#8c6851;fill-opacity:1;fill-rule:nonzero;stroke:none"
                 d="m 4389.7673,2363.8068 0,172.0482 113.2919,0 0,-29.9772 -79.7307,0 0,-40.362 67.9104,0 0,-29.9449 -67.9104,0 0,-41.8084 79.7307,0 0,-29.9557 -113.2919,0"
                 inkscape:connector-curvature="0" />
              <path
                 id="path58"
                 style="fill:#c0a896;fill-opacity:1;fill-rule:nonzero;stroke:none"
                 d="m 4652.2008,2362.3495 c -35.2884,0 -63.3334,23.9214 -63.3334,60.408 l 0,113.0975 33.5936,0 0,-111.8777 c 0,-19.7978 11.6044,-31.6505 29.7398,-31.6505 18.1029,0 29.9449,11.8527 29.9449,31.6505 l 0,111.8777 33.3344,0 0,-113.0975 c 0,-36.4866 -28.0234,-60.408 -63.2793,-60.408"
                 inkscape:connector-curvature="0" />
              <path
                 id="path60"
                 style="fill:#c0a896;fill-opacity:1;fill-rule:nonzero;stroke:none"
                 d="m 4884.4194,2363.8068 -29.988,0 -68.1371,105.5952 0,-105.5952 -33.5612,0 0,172.0482 29.9557,0 68.1263,-105.3684 0,105.3684 33.6043,0 0,-172.0482"
                 inkscape:connector-curvature="0" />
              <path
                 id="path62"
                 style="fill:#c0a896;fill-opacity:1;fill-rule:nonzero;stroke:none"
                 d="m 4924.2956,2363.8068 33.5695,0 0,172.0472 -33.5695,0 0,-172.0472 z"
                 inkscape:connector-curvature="0" />
              <path
                 id="path64"
                 style="fill:#c0a896;fill-opacity:1;fill-rule:nonzero;stroke:none"
                 d="m 5060.3322,2363.8068 -25.1304,0 -56.7701,172.0482 34.7918,0 34.5543,-112.126 34.5327,112.126 35.0509,0 -57.0292,-172.0482"
                 inkscape:connector-curvature="0" />
              <path
                 id="path66"
                 style="fill:#c0a896;fill-opacity:1;fill-rule:nonzero;stroke:none"
                 d="m 5251.239,2363.8068 -113.3135,0 0,172.0482 113.3135,0 0,-29.9772 -79.7307,0 0,-40.362 67.878,0 0,-29.9449 -67.878,0 0,-41.8084 79.7307,0 0,-29.9557"
                 inkscape:connector-curvature="0" />
              <path
                 id="path68"
                 style="fill:#c0a896;fill-opacity:1;fill-rule:nonzero;stroke:none"
                 d="m 5414.1116,2363.8068 -38.9154,0 -33.5828,68.6336 -24.148,0 0,-68.6336 -33.5828,0 0,172.0482 67.3922,0 c 35.0509,0 55.8093,-23.9213 55.8093,-52.6896 0,-24.1481 -14.7133,-39.1097 -31.3914,-45.1548 l 38.4189,-74.2038 m -96.6462,142.071 0,-45.4247 31.6396,0 c 14.7566,0 24.418,9.4347 24.418,22.7123 0,13.2777 -9.6614,22.7124 -24.418,22.7124 l -31.6396,0"
                 inkscape:connector-curvature="0" />
              <path
                 id="path70"
                 style="fill:#c0a896;fill-opacity:1;fill-rule:nonzero;stroke:none"
                 d="m 5489.017,2362.3495 c -26.0803,0 -45.8781,5.5594 -62.8044,22.7448 l 21.7408,21.6976 c 10.8596,-10.8596 25.627,-14.4651 41.5602,-14.4651 19.8085,0 30.4414,7.4592 30.4414,21.2658 0,6.0344 -1.6948,11.0863 -5.311,14.5083 -3.3896,3.1089 -7.2542,4.8253 -15.2316,6.0235 l -20.7584,2.8931 c -14.7458,2.1805 -25.627,6.7467 -33.3669,14.2707 -8.2149,8.1933 -12.3061,19.3012 -12.3061,33.8419 0,30.6789 22.7015,52.1607 59.9221,52.1607 23.6623,0 40.8369,-5.7969 55.5611,-20.0569 l -21.2658,-21.0175 c -10.8812,10.3738 -23.9322,11.8635 -35.256,11.8635 -17.887,0 -26.5985,-9.9097 -26.5985,-21.7732 0,-4.3287 1.4681,-8.9489 5.0736,-12.3169 3.4112,-3.1413 8.9489,-5.7968 15.9332,-6.7684 l 20.3159,-2.893 c 15.7173,-2.1806 25.6161,-6.5309 32.8595,-13.2776 9.1972,-8.7115 13.2884,-21.2875 13.2884,-36.4974 0,-33.3237 -27.7967,-52.2039 -63.7975,-52.2039"
                 inkscape:connector-curvature="0" />
              <path
                 id="path72"
                 style="fill:#c0a896;fill-opacity:1;fill-rule:nonzero;stroke:none"
                 d="m 5584.2491,2363.8068 33.5737,0 0,172.0472 -33.5737,0 0,-172.0472 z"
                 inkscape:connector-curvature="0" />
              <path
                 id="path74"
                 style="fill:#c0a896;fill-opacity:1;fill-rule:nonzero;stroke:none"
                 d="m 5723.427,2363.8068 -33.5827,0 0,142.071 -44.939,0 0,29.9772 123.4499,0 0,-29.9772 -44.9282,0 0,-142.071"
                 inkscape:connector-curvature="0" />
              <path
                 id="path76"
                 style="fill:#c0a896;fill-opacity:1;fill-rule:nonzero;stroke:none"
                 d="m 5908.7637,2363.8068 -113.3027,0 0,172.0482 113.3027,0 0,-29.9772 -79.7307,0 0,-40.362 67.8995,0 0,-29.9449 -67.8995,0 0,-41.8084 79.7307,0 0,-29.9557 m -50.9625,188.7047 -21.0283,0 15.4582,41.0959 33.097,0 -27.5269,-41.0959"
                 inkscape:connector-curvature="0" />
              <path
                 id="path78"
                 style="fill:#c0a896;fill-opacity:1;fill-rule:nonzero;stroke:none"
                 d="m 5988.7751,2362.3495 c -26.1128,0 -45.9213,5.5594 -62.826,22.7448 l 21.7408,21.6976 c 10.892,-10.8596 25.6053,-14.4651 41.5493,-14.4651 19.8194,0 30.4523,7.4592 30.4523,21.2658 0,6.0344 -1.684,11.0863 -5.3111,14.5083 -3.3896,3.1089 -7.2541,4.8253 -15.2099,6.0235 l -20.8017,2.8931 c -14.7241,2.1805 -25.6053,6.7467 -33.3345,14.2707 -8.2256,8.1933 -12.3169,19.3012 -12.3169,33.8419 0,30.6789 22.7016,52.1607 59.9222,52.1607 23.6839,0 40.8261,-5.7969 55.5611,-20.0569 l -21.2551,-21.0175 c -10.8596,10.3738 -23.9214,11.8635 -35.2883,11.8635 -17.8871,0 -26.5553,-9.9097 -26.5553,-21.7732 0,-4.3287 1.4249,-8.9489 5.0519,-12.3169 3.3896,-3.1413 8.9382,-5.7968 15.9548,-6.7684 l 20.3051,-2.893 c 15.7065,-2.1806 25.5946,-6.5309 32.8487,-13.2776 9.1756,-8.7115 13.2993,-21.2875 13.2993,-36.4974 0,-33.3237 -27.7967,-52.2039 -63.7867,-52.2039"
                 inkscape:connector-curvature="0" />
            </g>
          </g>
        </g>
      </g>
    </g>
  </g>
</svg>
